<mxfile host="www.draw.io" modified="2019-11-09T04:58:10.868Z" agent="Mozilla/5.0 (Macintosh; Intel Mac OS X 10_14_3) AppleWebKit/537.36 (KHTML, like Gecko) Chrome/78.0.3904.70 Safari/537.36" etag="Pon1e_7kuy6PD0Fy_apq" version="12.2.3" type="github" pages="1">
  <diagram id="MqKJ6M4AEW0YFENgOs9T" name="Page-1">
    <mxGraphModel dx="772" dy="438" grid="1" gridSize="10" guides="1" tooltips="1" connect="1" arrows="1" fold="1" page="1" pageScale="1" pageWidth="850" pageHeight="1100" math="0" shadow="0">
      <root>
        <mxCell id="0"/>
        <mxCell id="1" parent="0"/>
        <mxCell id="p-0Q1d95UfHn5TYhovh6-1" value="&lt;b&gt;&lt;font style=&quot;font-size: 14px&quot;&gt;A&lt;/font&gt;&lt;/b&gt;" style="ellipse;whiteSpace=wrap;html=1;aspect=fixed;" vertex="1" parent="1">
          <mxGeometry x="160" y="160" width="40" height="40" as="geometry"/>
        </mxCell>
        <mxCell id="p-0Q1d95UfHn5TYhovh6-2" value="&lt;b style=&quot;white-space: normal&quot;&gt;&lt;font style=&quot;font-size: 14px&quot;&gt;B&lt;/font&gt;&lt;/b&gt;" style="ellipse;whiteSpace=wrap;html=1;aspect=fixed;" vertex="1" parent="1">
          <mxGeometry x="160" y="240" width="40" height="40" as="geometry"/>
        </mxCell>
        <mxCell id="p-0Q1d95UfHn5TYhovh6-3" value="&lt;b style=&quot;white-space: normal&quot;&gt;&lt;font style=&quot;font-size: 14px&quot;&gt;C&lt;/font&gt;&lt;/b&gt;" style="ellipse;whiteSpace=wrap;html=1;aspect=fixed;" vertex="1" parent="1">
          <mxGeometry x="160" y="320" width="40" height="40" as="geometry"/>
        </mxCell>
        <mxCell id="p-0Q1d95UfHn5TYhovh6-4" value="&lt;b style=&quot;white-space: normal&quot;&gt;&lt;font style=&quot;font-size: 14px&quot;&gt;D&lt;/font&gt;&lt;/b&gt;" style="ellipse;whiteSpace=wrap;html=1;aspect=fixed;" vertex="1" parent="1">
          <mxGeometry x="160" y="400" width="40" height="40" as="geometry"/>
        </mxCell>
        <mxCell id="p-0Q1d95UfHn5TYhovh6-5" value="&lt;b style=&quot;white-space: normal&quot;&gt;&lt;font style=&quot;font-size: 14px&quot;&gt;E&lt;/font&gt;&lt;/b&gt;" style="ellipse;whiteSpace=wrap;html=1;aspect=fixed;" vertex="1" parent="1">
          <mxGeometry x="160" y="480" width="40" height="40" as="geometry"/>
        </mxCell>
        <mxCell id="p-0Q1d95UfHn5TYhovh6-6" value="&lt;span style=&quot;font-size: 14px&quot;&gt;&lt;b&gt;F&lt;/b&gt;&lt;/span&gt;" style="ellipse;whiteSpace=wrap;html=1;aspect=fixed;" vertex="1" parent="1">
          <mxGeometry x="160" y="560" width="40" height="40" as="geometry"/>
        </mxCell>
        <mxCell id="p-0Q1d95UfHn5TYhovh6-13" value="" style="ellipse;whiteSpace=wrap;html=1;aspect=fixed;" vertex="1" parent="1">
          <mxGeometry x="360" y="160" width="40" height="40" as="geometry"/>
        </mxCell>
        <mxCell id="p-0Q1d95UfHn5TYhovh6-14" value="" style="ellipse;whiteSpace=wrap;html=1;aspect=fixed;" vertex="1" parent="1">
          <mxGeometry x="360" y="240" width="40" height="40" as="geometry"/>
        </mxCell>
        <mxCell id="p-0Q1d95UfHn5TYhovh6-15" value="" style="ellipse;whiteSpace=wrap;html=1;aspect=fixed;" vertex="1" parent="1">
          <mxGeometry x="360" y="320" width="40" height="40" as="geometry"/>
        </mxCell>
        <mxCell id="p-0Q1d95UfHn5TYhovh6-16" value="" style="ellipse;whiteSpace=wrap;html=1;aspect=fixed;" vertex="1" parent="1">
          <mxGeometry x="360" y="400" width="40" height="40" as="geometry"/>
        </mxCell>
        <mxCell id="p-0Q1d95UfHn5TYhovh6-17" value="" style="ellipse;whiteSpace=wrap;html=1;aspect=fixed;" vertex="1" parent="1">
          <mxGeometry x="360" y="480" width="40" height="40" as="geometry"/>
        </mxCell>
        <mxCell id="p-0Q1d95UfHn5TYhovh6-18" value="" style="ellipse;whiteSpace=wrap;html=1;aspect=fixed;" vertex="1" parent="1">
          <mxGeometry x="360" y="560" width="40" height="40" as="geometry"/>
        </mxCell>
      </root>
    </mxGraphModel>
  </diagram>
</mxfile>
